<svg width="208" height="178" viewBox="0 0 208 178" fill="none" xmlns="http://www.w3.org/2000/svg">
<g clip-path="url(#clip0_217_1792)">
<path d="M143.479 1.96298L145.883 0.0271115C144.016 -0.18034 143.249 0.845145 142.935 1.65682C141.476 1.04685 139.888 1.84625 139.888 1.84625L144.697 3.60436C144.454 2.9518 144.032 2.38242 143.479 1.96298V1.96298Z" fill="#252525"/>
<path d="M157.478 15.0875C161.468 15.0875 164.702 11.7455 164.702 7.62284C164.702 3.50024 161.468 0.158203 157.478 0.158203C153.487 0.158203 150.253 3.50024 150.253 7.62284C150.253 11.7455 153.487 15.0875 157.478 15.0875Z" fill="#43A047" fill-opacity="0.3"/>
<path d="M180.133 30.6244H144.69C144.646 30.625 144.602 30.6214 144.558 30.6136L161.321 0.615664C161.423 0.428797 161.572 0.273338 161.751 0.165167C161.931 0.0569973 162.135 0 162.342 0C162.55 0 162.754 0.0569973 162.934 0.165167C163.113 0.273338 163.262 0.428797 163.364 0.615664L174.613 20.7459L175.152 21.709L180.133 30.6244Z" fill="#43A047"/>
<path d="M199.866 30.6251H169.212L175.151 21.7104L175.579 21.068L183.319 9.45059C183.456 9.27283 183.628 9.12684 183.823 9.02211C184.018 8.91738 184.232 8.85626 184.451 8.84272C184.671 8.82918 184.891 8.86353 185.096 8.94353C185.302 9.02353 185.489 9.14739 185.646 9.30705C185.686 9.3524 185.723 9.40034 185.757 9.45059L199.866 30.6251Z" fill="#43A047"/>
<path d="M60.0752 163.208C62.3259 163.208 64.1504 161.371 64.1504 159.104C64.1504 156.837 62.3259 155 60.0752 155C57.8245 155 56 156.837 56 159.104C56 161.371 57.8245 163.208 60.0752 163.208Z" fill="#43A047"/>
<path d="M206.908 32.4816C190.997 31.5343 175.039 31.7814 159.164 33.2207C151.513 33.9173 143.74 34.6696 136.231 36.3504C130.182 37.7042 123.161 39.9924 119.392 45.322C118.603 46.3959 118.071 47.6391 117.838 48.9544C117.605 50.2697 117.678 51.6215 118.05 52.9039C118.948 55.9421 121.184 58.4711 123.565 60.4518C129.044 65.0107 135.843 67.6636 141.916 71.2854C153.004 77.8983 163.151 86.8116 169.665 98.1343C172.531 103.117 175.257 109.742 172.066 115.232C168.939 120.61 161.96 122.463 156.267 123.337C149.133 124.432 141.784 124.135 134.62 123.522C126.765 122.784 118.955 121.632 111.22 120.07C96.0679 117.14 81.0534 113.413 65.6904 111.718C57.9873 110.805 50.2193 110.579 42.4767 111.042C35.4843 111.517 28.432 112.631 21.8631 115.17C16.8012 117.127 11.4055 120.087 8.67124 125.024C6.03556 129.783 7.06355 135.272 9.93348 139.663C13.3866 144.946 18.7712 148.566 24.3695 151.212C30.7436 154.225 37.5613 156.178 44.3877 157.839C47.8499 158.681 51.3308 159.443 54.812 160.2C55.5382 160.358 55.8485 159.235 55.1197 159.076C48.0995 157.549 41.059 156.016 34.2132 153.804C27.8781 151.758 21.395 149.136 16.2071 144.839C12.0101 141.362 8.01966 136.285 8.26738 130.511C8.51711 124.691 13.3659 120.627 18.1184 118.126C24.0577 115 30.8056 113.477 37.4177 112.681C44.9887 111.832 52.6239 111.727 60.2151 112.369C75.5418 113.544 90.5261 117.06 105.553 120.127C120.152 123.106 135.206 125.865 150.167 125.101C156.097 124.798 162.451 123.942 167.687 120.928C170.084 119.548 172.246 117.601 173.464 115.068C174.562 112.659 174.909 109.97 174.46 107.358C173.611 101.619 170.226 96.2976 166.849 91.7266C163.147 86.7688 158.853 82.289 154.064 78.3886C148.807 74.1283 143.14 70.4101 137.146 67.2897C133.968 65.6044 130.745 63.9839 127.716 62.0319C124.811 60.1603 121.947 57.9084 120.173 54.8701C118.639 52.2423 118.358 49.243 119.955 46.5779C121.571 43.8822 124.356 42.0021 127.101 40.6283C133.716 37.3181 141.407 36.4321 148.644 35.5242C164.184 33.5814 179.845 32.795 195.5 33.1713C199.305 33.2615 203.108 33.4201 206.908 33.6473C207.652 33.6913 207.65 32.5256 206.908 32.4816V32.4816Z" fill="#252525"/>
<path d="M186.008 66.9028L179.603 63.6099L180.083 63.3633L186.488 66.6565L186.008 66.9028Z" fill="#CBCBCB"/>
<path d="M180.421 66.9028L179.943 66.6565L186.347 63.3633L186.826 63.6099L180.421 66.9028Z" fill="#CBCBCB"/>
<path d="M132.751 41.38L132.441 41.9639L134.251 42.8613L134.56 42.2774L132.751 41.38Z" fill="#CBCBCB"/>
<path d="M170.264 60.7219L166.663 58.9357L166.972 58.3519L170.573 60.138L170.264 60.7219ZM163.062 57.1496L159.46 55.3633L159.769 54.7794L163.371 56.5657L163.062 57.1496ZM155.859 53.5771L152.258 51.791L152.567 51.2071L156.168 52.9933L155.859 53.5771ZM148.656 50.0048L145.055 48.2187L145.364 47.6348L148.965 49.4209L148.656 50.0048ZM141.454 46.4325L137.852 44.6464L138.161 44.0625L141.763 45.8486L141.454 46.4325Z" fill="#CBCBCB"/>
<path d="M174.175 61.924L173.865 62.5078L175.675 63.4052L175.984 62.8214L174.175 61.924Z" fill="#CBCBCB"/>
<path d="M37.559 85.2907C37.559 85.4955 37.5521 85.6987 37.5384 85.9002C37.4614 87.0621 37.1582 88.1994 36.6445 89.2522C36.6406 89.2612 36.6359 89.2696 36.6319 89.2779C36.608 89.3267 36.5835 89.3755 36.5583 89.4237C36.4055 89.7215 36.236 90.0109 36.0506 90.2908C35.2037 91.5755 34.0428 92.6385 32.6707 93.3859C31.2985 94.1333 29.7573 94.5421 28.1831 94.5761L28.278 99.8582L29.5156 99.2274L29.7366 99.634L28.2873 100.373L28.4645 110.183L28.4665 110.314L27.5096 110.52L27.5116 110.388L27.8128 94.5767C26.5458 94.5591 25.295 94.2981 24.1331 93.8088C22.9712 93.3194 21.9212 92.6116 21.0443 91.7263C20.9839 91.6659 20.9242 91.6036 20.8658 91.542L20.8591 91.5349C20.1284 90.7636 19.5375 89.8786 19.1112 88.917C19.1205 88.9272 19.1305 88.9369 19.1398 88.9471C18.1764 86.7666 18.111 84.312 18.9571 82.0863C19.8033 79.8607 21.4968 78.0325 23.6906 76.9764C23.7238 76.9603 23.7577 76.9449 23.7908 76.9288C25.961 75.9171 28.4446 75.7315 30.7495 76.4087C33.0544 77.086 35.0123 78.5767 36.2351 80.5853C36.2935 80.6804 36.3499 80.7774 36.4043 80.875C37.1639 82.2306 37.5608 83.7486 37.559 85.2907Z" fill="white"/>
<path d="M36.2673 89.2829C43.2137 89.2829 48.8449 83.8326 48.8449 77.1092C48.8449 70.3859 43.2137 64.9355 36.2673 64.9355C29.3209 64.9355 23.6897 70.3859 23.6897 77.1092C23.6897 83.8326 29.3209 89.2829 36.2673 89.2829Z" fill="white"/>
<path opacity="0.2" d="M26.9803 68.9785C25.8071 71.6347 25.648 74.6082 26.5313 77.3675C27.4147 80.1268 29.2829 82.4923 31.8023 84.0411C34.3216 85.5899 37.3279 86.2212 40.2839 85.8221C43.2399 85.4231 45.953 84.0197 47.9383 81.8628C47.2216 83.4856 46.149 84.9382 44.7947 86.12C43.4404 87.3017 41.8368 88.1844 40.0951 88.7068C38.3534 89.2291 36.5152 89.3788 34.7078 89.1453C32.9004 88.9118 31.1671 88.3007 29.6279 87.3545C28.0887 86.4082 26.7805 85.1494 25.7938 83.6653C24.8072 82.1811 24.1657 80.507 23.9139 78.7591C23.662 77.0111 23.8059 75.2311 24.3353 73.5423C24.8648 71.8534 25.7673 70.2962 26.9803 68.9785V68.9785Z" fill="#263238"/>
<path d="M36.9476 111.023L35.6631 110.674L35.6658 110.54L36.0507 90.2908L36.07 89.2811L36.0704 89.2517L36.1377 85.7137L36.2351 80.5859V80.5852L36.3013 77.1094H36.3367L36.4045 80.875L36.4926 85.7763L36.5558 89.2539V89.2796L36.5585 89.4231V89.4238L36.6805 96.2029L36.6932 96.8765L36.9453 110.888L36.9476 111.023Z" fill="#252525"/>
<path d="M38.3021 95.3771L36.223 96.4365L36.5128 96.9692L38.5919 95.9097L38.3021 95.3771Z" fill="#252525"/>
<path d="M177.601 7.75926L179.999 5.90295C178.137 5.70403 177.371 6.68736 177.058 7.46568C175.602 6.88078 174.018 7.64733 174.018 7.64733L178.816 9.33319C178.574 8.70745 178.153 8.16147 177.601 7.75926V7.75926Z" fill="#252525"/>
<path d="M189.239 17.0639L191.637 15.2076C189.774 15.0087 189.009 15.992 188.695 16.7704C187.24 16.1855 185.656 16.952 185.656 16.952L190.454 18.6379C190.212 18.0121 189.79 17.4662 189.239 17.0639V17.0639Z" fill="#252525"/>
<path d="M145.112 98.8203C148.472 100.445 150.517 102.592 150.517 104.946C150.517 110.018 141.035 114.129 129.34 114.129C124.255 114.129 119.589 113.351 115.939 112.056C119.816 113.932 125.445 115.113 131.711 115.113C143.407 115.113 152.889 111.002 152.889 105.93C152.889 103.063 149.858 100.504 145.112 98.8203Z" fill="#F1F1F1"/>
<path d="M152.585 102.305C156.376 104.139 158.684 106.561 158.684 109.217C158.684 114.94 147.985 119.579 134.787 119.579C129.049 119.579 123.785 118.701 119.666 117.24C124.041 119.356 130.392 120.689 137.464 120.689C150.661 120.689 161.36 116.05 161.36 110.327C161.36 107.093 157.94 104.205 152.585 102.305Z" fill="#F1F1F1"/>
<path d="M142.253 100.354C144.619 101.499 146.06 103.012 146.06 104.67C146.06 108.243 139.38 111.14 131.14 111.14C127.93 111.18 124.736 110.686 121.699 109.679C124.431 111.001 128.396 111.833 132.811 111.833C141.051 111.833 147.731 108.937 147.731 105.363C147.731 103.344 145.596 101.541 142.253 100.354Z" fill="#F1F1F1"/>
<path d="M108.997 99.6992C108.997 99.6992 109.518 107.057 124.426 107.057C139.335 107.057 143.786 99.6992 143.786 99.6992H108.997Z" fill="#252525"/>
<path d="M130.159 80.3937C128.007 78.8111 125.305 78.0959 122.62 78.3978C125.02 78.9577 127.139 80.3176 128.605 82.2389C130.072 84.1602 130.793 86.5201 130.641 88.9044C130.489 91.2888 129.475 93.5452 127.776 95.2777C126.076 97.0103 123.801 98.1082 121.349 98.3788C123.694 98.9269 126.163 98.6765 128.341 97.6699C130.518 96.6633 132.271 94.9618 133.305 92.8515C134.339 90.7412 134.59 88.3507 134.017 86.082C133.444 83.8132 132.082 81.8046 130.159 80.3937V80.3937Z" fill="#252525"/>
<path d="M125.274 77.0703H124.257V100.49H125.274V77.0703Z" fill="#252525"/>
<path d="M192.078 59.6696L192.073 59.6606L192.059 59.0885L195.244 54.6133L192.063 58.6603L192.052 58.7812L191.943 54.2071L194.693 49.5674L191.935 53.4035L191.964 43.9271L191.964 43.8955L191.963 43.9265L191.78 51.3953L189.273 48.3615L191.772 52.0387L191.717 56.1302L189.41 52.1371L191.709 56.7317L191.678 59.0068L191.594 65.3098L191.588 65.7807C191.8 65.7823 192.011 65.7789 192.219 65.7705L192.074 59.7163L192.078 59.6696Z" fill="#CBCBCB"/>
<path d="M176.831 61.6374L176.825 61.6283L176.811 61.0563L179.996 56.5811L176.815 60.6281L176.804 60.749L176.695 56.1749L179.445 51.5352L176.687 55.3713L176.716 45.8948L176.716 45.8633L176.715 45.8943L176.532 53.363L174.025 50.3292L176.524 54.0065L176.469 58.0979L174.163 54.1048L176.461 58.6995L176.43 60.9745L176.346 67.2775L176.34 67.7485C176.552 67.7501 176.763 67.7466 176.971 67.7382L176.827 61.6841L176.831 61.6374Z" fill="#CBCBCB"/>
<path d="M184.285 55.4059L184.28 55.3969L184.266 54.8248L187.451 50.3497L184.27 54.3966L184.258 54.5175L184.15 49.9434L186.9 45.3037L184.142 49.1398L184.171 39.6634L184.17 39.6318L184.17 39.6629L183.987 47.1316L181.48 44.0978L183.979 47.775L183.924 51.8665L181.617 47.8734L183.916 52.468L183.885 54.7431L183.801 61.0461L183.795 61.517C184.007 61.5186 184.217 61.5152 184.425 61.5068L184.281 55.4526L184.285 55.4059Z" fill="#CBCBCB"/>
</g>
<path d="M30.48 148L24.48 131.08H28.344L32.64 144.136H31.608L36.288 131.08H39.024L43.32 144.136H42.36L46.92 131.08H50.544L44.496 148H41.448L37.296 135.976H37.848L33.552 148H30.48ZM57.0846 148.264C54.9726 148.264 53.3246 147.696 52.1406 146.56C50.9566 145.424 50.3646 143.88 50.3646 141.928C50.3646 140.664 50.6126 139.56 51.1086 138.616C51.6206 137.672 52.3246 136.936 53.2206 136.408C54.1326 135.864 55.1966 135.592 56.4126 135.592C57.6126 135.592 58.6126 135.848 59.4126 136.36C60.2286 136.872 60.8366 137.592 61.2366 138.52C61.6526 139.432 61.8606 140.496 61.8606 141.712V142.552H53.3406V140.752H59.2206L58.8126 141.088C58.8126 140.08 58.6046 139.32 58.1886 138.808C57.7886 138.28 57.2046 138.016 56.4366 138.016C55.5886 138.016 54.9326 138.328 54.4686 138.952C54.0206 139.576 53.7966 140.472 53.7966 141.64V142.024C53.7966 143.208 54.0846 144.088 54.6606 144.664C55.2526 145.24 56.1006 145.528 57.2046 145.528C57.8606 145.528 58.4766 145.448 59.0526 145.288C59.6446 145.112 60.2046 144.84 60.7326 144.472L61.7406 146.872C61.1326 147.32 60.4286 147.664 59.6286 147.904C58.8446 148.144 57.9966 148.264 57.0846 148.264ZM64.1599 148V130.336H67.7839V148H64.1599ZM76.6018 148.264C75.3058 148.264 74.1698 148.008 73.1938 147.496C72.2178 146.984 71.4658 146.248 70.9378 145.288C70.4098 144.328 70.1458 143.192 70.1458 141.88C70.1458 140.552 70.4098 139.424 70.9378 138.496C71.4818 137.552 72.2338 136.832 73.1938 136.336C74.1698 135.84 75.3058 135.592 76.6018 135.592C77.4178 135.592 78.2098 135.712 78.9778 135.952C79.7618 136.192 80.4018 136.528 80.8978 136.96L79.8418 139.456C79.4418 139.088 78.9778 138.816 78.4498 138.64C77.9378 138.448 77.4418 138.352 76.9618 138.352C75.9858 138.352 75.2258 138.656 74.6818 139.264C74.1378 139.872 73.8658 140.752 73.8658 141.904C73.8658 143.056 74.1378 143.936 74.6818 144.544C75.2258 145.152 75.9858 145.456 76.9618 145.456C77.4258 145.456 77.9138 145.368 78.4258 145.192C78.9538 145.016 79.4258 144.752 79.8418 144.4L80.8978 146.872C80.3858 147.304 79.7378 147.648 78.9538 147.904C78.1858 148.144 77.4018 148.264 76.6018 148.264ZM88.4824 148.264C87.1864 148.264 86.0584 148.008 85.0984 147.496C84.1544 146.968 83.4184 146.232 82.8904 145.288C82.3784 144.344 82.1224 143.216 82.1224 141.904C82.1224 140.608 82.3784 139.488 82.8904 138.544C83.4184 137.6 84.1544 136.872 85.0984 136.36C86.0584 135.848 87.1864 135.592 88.4824 135.592C89.7784 135.592 90.9064 135.848 91.8664 136.36C92.8264 136.872 93.5624 137.6 94.0744 138.544C94.6024 139.488 94.8664 140.608 94.8664 141.904C94.8664 143.216 94.6024 144.344 94.0744 145.288C93.5624 146.232 92.8264 146.968 91.8664 147.496C90.9064 148.008 89.7784 148.264 88.4824 148.264ZM88.4824 145.528C89.3144 145.528 89.9704 145.232 90.4504 144.64C90.9464 144.048 91.1944 143.136 91.1944 141.904C91.1944 140.672 90.9464 139.768 90.4504 139.192C89.9704 138.616 89.3144 138.328 88.4824 138.328C87.6504 138.328 86.9864 138.616 86.4904 139.192C86.0104 139.768 85.7704 140.672 85.7704 141.904C85.7704 143.136 86.0104 144.048 86.4904 144.64C86.9864 145.232 87.6504 145.528 88.4824 145.528ZM97.2068 148V139C97.2068 138.488 97.1908 137.968 97.1588 137.44C97.1268 136.896 97.0788 136.36 97.0148 135.832H100.495L100.759 138.088H100.471C100.823 137.32 101.343 136.712 102.031 136.264C102.719 135.816 103.535 135.592 104.479 135.592C105.407 135.592 106.183 135.816 106.807 136.264C107.447 136.696 107.903 137.376 108.175 138.304H107.791C108.143 137.472 108.703 136.816 109.471 136.336C110.239 135.84 111.111 135.592 112.087 135.592C113.463 135.592 114.487 136 115.159 136.816C115.831 137.632 116.167 138.912 116.167 140.656V148H112.543V140.776C112.543 139.928 112.407 139.32 112.135 138.952C111.863 138.584 111.423 138.4 110.815 138.4C110.095 138.4 109.527 138.656 109.111 139.168C108.695 139.68 108.487 140.384 108.487 141.28V148H104.863V140.776C104.863 139.928 104.727 139.32 104.455 138.952C104.183 138.584 103.743 138.4 103.135 138.4C102.415 138.4 101.847 138.656 101.431 139.168C101.031 139.68 100.831 140.384 100.831 141.28V148H97.2068ZM125.194 148.264C123.082 148.264 121.434 147.696 120.25 146.56C119.066 145.424 118.474 143.88 118.474 141.928C118.474 140.664 118.722 139.56 119.218 138.616C119.73 137.672 120.434 136.936 121.33 136.408C122.242 135.864 123.306 135.592 124.522 135.592C125.722 135.592 126.722 135.848 127.522 136.36C128.338 136.872 128.946 137.592 129.346 138.52C129.762 139.432 129.97 140.496 129.97 141.712V142.552H121.45V140.752H127.33L126.922 141.088C126.922 140.08 126.714 139.32 126.298 138.808C125.898 138.28 125.314 138.016 124.546 138.016C123.698 138.016 123.042 138.328 122.578 138.952C122.13 139.576 121.906 140.472 121.906 141.64V142.024C121.906 143.208 122.194 144.088 122.77 144.664C123.362 145.24 124.21 145.528 125.314 145.528C125.97 145.528 126.586 145.448 127.162 145.288C127.754 145.112 128.314 144.84 128.842 144.472L129.85 146.872C129.242 147.32 128.538 147.664 127.738 147.904C126.954 148.144 126.106 148.264 125.194 148.264ZM146.483 148.264C145.507 148.264 144.635 148.024 143.867 147.544C143.115 147.064 142.611 146.424 142.355 145.624H142.619V148H139.043V130.336H142.667V138.112H142.355C142.627 137.344 143.139 136.736 143.891 136.288C144.659 135.824 145.523 135.592 146.483 135.592C147.555 135.592 148.491 135.848 149.291 136.36C150.091 136.872 150.715 137.6 151.163 138.544C151.627 139.488 151.859 140.624 151.859 141.952C151.859 143.264 151.627 144.392 151.163 145.336C150.715 146.28 150.083 147.008 149.267 147.52C148.467 148.016 147.539 148.264 146.483 148.264ZM145.403 145.528C146.219 145.528 146.891 145.24 147.419 144.664C147.947 144.088 148.211 143.184 148.211 141.952C148.211 140.72 147.947 139.808 147.419 139.216C146.891 138.624 146.219 138.328 145.403 138.328C144.571 138.328 143.891 138.616 143.363 139.192C142.851 139.768 142.595 140.672 142.595 141.904C142.595 143.136 142.851 144.048 143.363 144.64C143.891 145.232 144.571 145.528 145.403 145.528ZM158.935 148.264C157.879 148.264 156.951 148.008 156.151 147.496C155.351 146.984 154.727 146.256 154.279 145.312C153.831 144.368 153.607 143.232 153.607 141.904C153.607 140.592 153.831 139.464 154.279 138.52C154.727 137.576 155.351 136.856 156.151 136.36C156.951 135.848 157.879 135.592 158.935 135.592C159.911 135.592 160.783 135.832 161.551 136.312C162.335 136.776 162.847 137.408 163.087 138.208H162.823L163.111 135.832H166.591C166.543 136.36 166.495 136.896 166.447 137.44C166.415 137.968 166.399 138.488 166.399 139V148H162.799L162.775 145.72H163.063C162.807 146.488 162.295 147.104 161.527 147.568C160.759 148.032 159.895 148.264 158.935 148.264ZM160.039 145.528C160.871 145.528 161.543 145.232 162.055 144.64C162.567 144.048 162.823 143.136 162.823 141.904C162.823 140.672 162.567 139.768 162.055 139.192C161.543 138.616 160.871 138.328 160.039 138.328C159.207 138.328 158.535 138.616 158.023 139.192C157.511 139.768 157.255 140.672 157.255 141.904C157.255 143.136 157.503 144.048 157.999 144.64C158.511 145.232 159.191 145.528 160.039 145.528ZM175.227 148.264C173.931 148.264 172.795 148.008 171.819 147.496C170.843 146.984 170.091 146.248 169.563 145.288C169.035 144.328 168.771 143.192 168.771 141.88C168.771 140.552 169.035 139.424 169.563 138.496C170.107 137.552 170.859 136.832 171.819 136.336C172.795 135.84 173.931 135.592 175.227 135.592C176.043 135.592 176.835 135.712 177.603 135.952C178.387 136.192 179.027 136.528 179.523 136.96L178.467 139.456C178.067 139.088 177.603 138.816 177.075 138.64C176.563 138.448 176.067 138.352 175.587 138.352C174.611 138.352 173.851 138.656 173.307 139.264C172.763 139.872 172.491 140.752 172.491 141.904C172.491 143.056 172.763 143.936 173.307 144.544C173.851 145.152 174.611 145.456 175.587 145.456C176.051 145.456 176.539 145.368 177.051 145.192C177.579 145.016 178.051 144.752 178.467 144.4L179.523 146.872C179.011 147.304 178.363 147.648 177.579 147.904C176.811 148.144 176.027 148.264 175.227 148.264ZM181.582 148V130.336H185.206V140.896H185.254L189.766 135.832H194.086L188.254 142.312V140.992L194.398 148H189.958L185.254 142.72H185.206V148H181.582Z" fill="#252525"/>
<path d="M21.43 174.112C20.8887 174.112 20.38 174.033 19.904 173.874C19.4373 173.715 19.05 173.496 18.742 173.216L19.078 172.586C19.4233 172.866 19.7967 173.076 20.198 173.216C20.5993 173.347 21.0193 173.412 21.458 173.412C22.0553 173.412 22.508 173.3 22.816 173.076C23.124 172.852 23.278 172.549 23.278 172.166C23.278 171.867 23.18 171.625 22.984 171.438C22.788 171.251 22.4613 171.111 22.004 171.018L20.744 170.752C20.1467 170.612 19.6987 170.388 19.4 170.08C19.1107 169.772 18.966 169.385 18.966 168.918C18.966 168.517 19.0687 168.162 19.274 167.854C19.4887 167.546 19.792 167.303 20.184 167.126C20.576 166.949 21.038 166.86 21.57 166.86C22.074 166.86 22.536 166.944 22.956 167.112C23.3853 167.271 23.7353 167.499 24.006 167.798L23.642 168.414C23.362 168.134 23.0447 167.924 22.69 167.784C22.3447 167.644 21.976 167.574 21.584 167.574C21.0053 167.574 20.5667 167.695 20.268 167.938C19.9693 168.171 19.82 168.484 19.82 168.876C19.82 169.175 19.9133 169.422 20.1 169.618C20.2867 169.805 20.5807 169.945 20.982 170.038L22.242 170.318C22.8767 170.458 23.348 170.673 23.656 170.962C23.964 171.251 24.118 171.634 24.118 172.11C24.118 172.521 24.006 172.88 23.782 173.188C23.558 173.487 23.2453 173.715 22.844 173.874C22.4427 174.033 21.9713 174.112 21.43 174.112ZM26.08 174V166.986H26.934V174H26.08ZM25.94 165.264V164.2H27.088V165.264H25.94ZM32.2895 177.122C31.7015 177.122 31.1508 177.043 30.6375 176.884C30.1335 176.725 29.6808 176.487 29.2795 176.17L29.5875 175.512C29.8862 175.727 30.1708 175.895 30.4415 176.016C30.7215 176.147 31.0108 176.24 31.3095 176.296C31.6082 176.361 31.9302 176.394 32.2755 176.394C32.9848 176.394 33.5215 176.203 33.8855 175.82C34.2495 175.447 34.4315 174.905 34.4315 174.196V171.97H34.5855C34.4362 172.558 34.1235 173.02 33.6475 173.356C33.1715 173.683 32.6115 173.846 31.9675 173.846C31.3235 173.846 30.7635 173.706 30.2875 173.426C29.8208 173.137 29.4568 172.731 29.1955 172.208C28.9435 171.676 28.8175 171.055 28.8175 170.346C28.8175 169.637 28.9435 169.021 29.1955 168.498C29.4568 167.975 29.8208 167.574 30.2875 167.294C30.7635 167.005 31.3235 166.86 31.9675 166.86C32.6115 166.86 33.1715 167.028 33.6475 167.364C34.1235 167.691 34.4362 168.153 34.5855 168.75L34.4315 168.596L34.5575 166.986H35.3975C35.3602 167.257 35.3322 167.523 35.3135 167.784C35.2948 168.045 35.2855 168.302 35.2855 168.554V174.07C35.2855 175.078 35.0288 175.839 34.5155 176.352C34.0115 176.865 33.2695 177.122 32.2895 177.122ZM32.0655 173.118C32.7935 173.118 33.3675 172.875 33.7875 172.39C34.2168 171.905 34.4315 171.223 34.4315 170.346C34.4315 169.478 34.2168 168.801 33.7875 168.316C33.3675 167.831 32.7935 167.588 32.0655 167.588C31.3375 167.588 30.7588 167.831 30.3295 168.316C29.9002 168.801 29.6855 169.478 29.6855 170.346C29.6855 171.223 29.9002 171.905 30.3295 172.39C30.7588 172.875 31.3375 173.118 32.0655 173.118ZM37.5917 174V168.554C37.5917 168.302 37.5824 168.045 37.5637 167.784C37.545 167.523 37.517 167.257 37.4797 166.986H38.3197L38.4457 168.596H38.2777C38.483 168.036 38.8144 167.607 39.2717 167.308C39.729 167.009 40.261 166.86 40.8677 166.86C41.6984 166.86 42.3237 167.079 42.7437 167.518C43.173 167.957 43.3877 168.643 43.3877 169.576V174H42.5337V169.646C42.5337 168.927 42.389 168.409 42.0997 168.092C41.8104 167.765 41.3624 167.602 40.7557 167.602C40.0464 167.602 39.4817 167.817 39.0617 168.246C38.651 168.675 38.4457 169.254 38.4457 169.982V174H37.5917ZM49.2538 174V166.986H50.1078V174H49.2538ZM49.1138 165.264V164.2H50.2618V165.264H49.1138ZM52.4393 174V168.554C52.4393 168.302 52.43 168.045 52.4113 167.784C52.3927 167.523 52.3647 167.257 52.3273 166.986H53.1673L53.2933 168.596H53.1253C53.3307 168.036 53.662 167.607 54.1193 167.308C54.5767 167.009 55.1087 166.86 55.7153 166.86C56.546 166.86 57.1713 167.079 57.5913 167.518C58.0207 167.957 58.2353 168.643 58.2353 169.576V174H57.3813V169.646C57.3813 168.927 57.2367 168.409 56.9473 168.092C56.658 167.765 56.21 167.602 55.6033 167.602C54.894 167.602 54.3293 167.817 53.9093 168.246C53.4987 168.675 53.2933 169.254 53.2933 169.982V174H52.4393ZM66.3695 174.112C65.7441 174.112 65.2635 173.925 64.9275 173.552C64.6008 173.179 64.4375 172.605 64.4375 171.83V167.672H63.0375V166.986H64.4375V165.026L65.2915 164.746V166.986H67.3635V167.672H65.2915V171.704C65.2915 172.292 65.3848 172.717 65.5715 172.978C65.7581 173.239 66.0568 173.37 66.4675 173.37C66.6541 173.37 66.8175 173.351 66.9575 173.314C67.1068 173.277 67.2328 173.235 67.3355 173.188V173.944C67.2235 173.991 67.0788 174.028 66.9015 174.056C66.7241 174.093 66.5468 174.112 66.3695 174.112ZM71.5219 174.112C70.8592 174.112 70.2852 173.967 69.7999 173.678C69.3239 173.389 68.9552 172.973 68.6939 172.432C68.4326 171.891 68.3019 171.242 68.3019 170.486C68.3019 169.739 68.4326 169.095 68.6939 168.554C68.9552 168.013 69.3239 167.597 69.7999 167.308C70.2852 167.009 70.8592 166.86 71.5219 166.86C72.1752 166.86 72.7399 167.009 73.2159 167.308C73.7012 167.597 74.0746 168.013 74.3359 168.554C74.6066 169.095 74.7419 169.739 74.7419 170.486C74.7419 171.242 74.6066 171.891 74.3359 172.432C74.0746 172.973 73.7012 173.389 73.2159 173.678C72.7399 173.967 72.1752 174.112 71.5219 174.112ZM71.5219 173.384C72.2312 173.384 72.8006 173.137 73.2299 172.642C73.6592 172.147 73.8739 171.429 73.8739 170.486C73.8739 169.543 73.6592 168.825 73.2299 168.33C72.8006 167.835 72.2312 167.588 71.5219 167.588C70.8032 167.588 70.2292 167.835 69.7999 168.33C69.3799 168.825 69.1699 169.543 69.1699 170.486C69.1699 171.429 69.3799 172.147 69.7999 172.642C70.2292 173.137 70.8032 173.384 71.5219 173.384ZM82.8396 174.112C82.2049 174.112 81.6542 173.967 81.1876 173.678C80.7209 173.389 80.3616 172.973 80.1096 172.432C79.8576 171.891 79.7316 171.242 79.7316 170.486C79.7316 169.73 79.8576 169.086 80.1096 168.554C80.3709 168.013 80.7349 167.597 81.2016 167.308C81.6682 167.009 82.2142 166.86 82.8396 166.86C83.4836 166.86 84.0389 167.028 84.5056 167.364C84.9816 167.7 85.2942 168.157 85.4436 168.736H85.2756L85.4156 166.986H86.2416C86.2136 167.257 86.1856 167.523 86.1576 167.784C86.1389 168.045 86.1296 168.302 86.1296 168.554V174H85.2756V172.25H85.4296C85.2802 172.829 84.9676 173.286 84.4916 173.622C84.0249 173.949 83.4742 174.112 82.8396 174.112ZM82.9516 173.384C83.6702 173.384 84.2396 173.137 84.6596 172.642C85.0796 172.147 85.2896 171.429 85.2896 170.486C85.2896 169.543 85.0796 168.825 84.6596 168.33C84.2396 167.835 83.6702 167.588 82.9516 167.588C82.2329 167.588 81.6589 167.835 81.2296 168.33C80.8096 168.825 80.5996 169.543 80.5996 170.486C80.5996 171.429 80.8096 172.147 81.2296 172.642C81.6589 173.137 82.2329 173.384 82.9516 173.384ZM91.2791 174.112C90.6164 174.112 90.0377 173.967 89.5431 173.678C89.0484 173.379 88.6657 172.955 88.3951 172.404C88.1337 171.853 88.0031 171.2 88.0031 170.444C88.0031 169.688 88.1384 169.044 88.4091 168.512C88.6797 167.971 89.0577 167.56 89.5431 167.28C90.0377 167 90.6164 166.86 91.2791 166.86C91.7271 166.86 92.1564 166.944 92.5671 167.112C92.9871 167.28 93.3324 167.513 93.6031 167.812L93.2531 168.442C92.9637 168.153 92.6511 167.943 92.3151 167.812C91.9791 167.672 91.6431 167.602 91.3071 167.602C90.5417 167.602 89.9444 167.845 89.5151 168.33C89.0857 168.815 88.8711 169.525 88.8711 170.458C88.8711 171.391 89.0857 172.115 89.5151 172.628C89.9444 173.132 90.5417 173.384 91.3071 173.384C91.6244 173.384 91.9511 173.319 92.2871 173.188C92.6324 173.057 92.9544 172.843 93.2531 172.544L93.6031 173.174C93.3231 173.473 92.9684 173.706 92.5391 173.874C92.1191 174.033 91.6991 174.112 91.2791 174.112ZM98.0193 174.112C97.3566 174.112 96.778 173.967 96.2833 173.678C95.7886 173.379 95.406 172.955 95.1353 172.404C94.874 171.853 94.7433 171.2 94.7433 170.444C94.7433 169.688 94.8786 169.044 95.1493 168.512C95.42 167.971 95.798 167.56 96.2833 167.28C96.778 167 97.3566 166.86 98.0193 166.86C98.4673 166.86 98.8966 166.944 99.3073 167.112C99.7273 167.28 100.073 167.513 100.343 167.812L99.9933 168.442C99.704 168.153 99.3913 167.943 99.0553 167.812C98.7193 167.672 98.3833 167.602 98.0473 167.602C97.282 167.602 96.6846 167.845 96.2553 168.33C95.826 168.815 95.6113 169.525 95.6113 170.458C95.6113 171.391 95.826 172.115 96.2553 172.628C96.6846 173.132 97.282 173.384 98.0473 173.384C98.3646 173.384 98.6913 173.319 99.0273 173.188C99.3726 173.057 99.6946 172.843 99.9933 172.544L100.343 173.174C100.063 173.473 99.7086 173.706 99.2793 173.874C98.8593 174.033 98.4393 174.112 98.0193 174.112ZM104.942 174.112C103.878 174.112 103.033 173.795 102.408 173.16C101.792 172.525 101.484 171.643 101.484 170.514C101.484 169.767 101.619 169.123 101.89 168.582C102.17 168.041 102.557 167.621 103.052 167.322C103.546 167.014 104.12 166.86 104.774 166.86C105.399 166.86 105.926 166.995 106.356 167.266C106.785 167.527 107.116 167.905 107.35 168.4C107.583 168.885 107.7 169.464 107.7 170.136V170.528H102.1V169.912H107.168L106.93 170.094C106.93 169.301 106.748 168.68 106.384 168.232C106.02 167.775 105.478 167.546 104.76 167.546C103.994 167.546 103.397 167.812 102.968 168.344C102.538 168.867 102.324 169.562 102.324 170.43V170.528C102.324 171.461 102.552 172.171 103.01 172.656C103.476 173.141 104.125 173.384 104.956 173.384C105.385 173.384 105.786 173.319 106.16 173.188C106.533 173.057 106.892 172.833 107.238 172.516L107.588 173.146C107.289 173.454 106.902 173.692 106.426 173.86C105.95 174.028 105.455 174.112 104.942 174.112ZM111.801 174.112C111.26 174.112 110.751 174.033 110.275 173.874C109.808 173.715 109.421 173.496 109.113 173.216L109.449 172.586C109.794 172.866 110.168 173.076 110.569 173.216C110.97 173.347 111.39 173.412 111.829 173.412C112.426 173.412 112.879 173.3 113.187 173.076C113.495 172.852 113.649 172.549 113.649 172.166C113.649 171.867 113.551 171.625 113.355 171.438C113.159 171.251 112.832 171.111 112.375 171.018L111.115 170.752C110.518 170.612 110.07 170.388 109.771 170.08C109.482 169.772 109.337 169.385 109.337 168.918C109.337 168.517 109.44 168.162 109.645 167.854C109.86 167.546 110.163 167.303 110.555 167.126C110.947 166.949 111.409 166.86 111.941 166.86C112.445 166.86 112.907 166.944 113.327 167.112C113.756 167.271 114.106 167.499 114.377 167.798L114.013 168.414C113.733 168.134 113.416 167.924 113.061 167.784C112.716 167.644 112.347 167.574 111.955 167.574C111.376 167.574 110.938 167.695 110.639 167.938C110.34 168.171 110.191 168.484 110.191 168.876C110.191 169.175 110.284 169.422 110.471 169.618C110.658 169.805 110.952 169.945 111.353 170.038L112.613 170.318C113.248 170.458 113.719 170.673 114.027 170.962C114.335 171.251 114.489 171.634 114.489 172.11C114.489 172.521 114.377 172.88 114.153 173.188C113.929 173.487 113.616 173.715 113.215 173.874C112.814 174.033 112.342 174.112 111.801 174.112ZM118.719 174.112C118.178 174.112 117.669 174.033 117.193 173.874C116.726 173.715 116.339 173.496 116.031 173.216L116.367 172.586C116.712 172.866 117.086 173.076 117.487 173.216C117.888 173.347 118.308 173.412 118.747 173.412C119.344 173.412 119.797 173.3 120.105 173.076C120.413 172.852 120.567 172.549 120.567 172.166C120.567 171.867 120.469 171.625 120.273 171.438C120.077 171.251 119.75 171.111 119.293 171.018L118.033 170.752C117.436 170.612 116.988 170.388 116.689 170.08C116.4 169.772 116.255 169.385 116.255 168.918C116.255 168.517 116.358 168.162 116.563 167.854C116.778 167.546 117.081 167.303 117.473 167.126C117.865 166.949 118.327 166.86 118.859 166.86C119.363 166.86 119.825 166.944 120.245 167.112C120.674 167.271 121.024 167.499 121.295 167.798L120.931 168.414C120.651 168.134 120.334 167.924 119.979 167.784C119.634 167.644 119.265 167.574 118.873 167.574C118.294 167.574 117.856 167.695 117.557 167.938C117.258 168.171 117.109 168.484 117.109 168.876C117.109 169.175 117.202 169.422 117.389 169.618C117.576 169.805 117.87 169.945 118.271 170.038L119.531 170.318C120.166 170.458 120.637 170.673 120.945 170.962C121.253 171.251 121.407 171.634 121.407 172.11C121.407 172.521 121.295 172.88 121.071 173.188C120.847 173.487 120.534 173.715 120.133 173.874C119.732 174.033 119.26 174.112 118.719 174.112ZM126.615 177.178L126.405 176.436C126.844 176.333 127.208 176.207 127.497 176.058C127.787 175.918 128.029 175.731 128.225 175.498C128.421 175.265 128.594 174.975 128.743 174.63L129.107 173.79L129.093 174.168L126.027 166.986H126.979L129.653 173.468H129.303L131.949 166.986H132.873L129.625 174.672C129.448 175.101 129.252 175.456 129.037 175.736C128.832 176.025 128.608 176.263 128.365 176.45C128.123 176.646 127.857 176.8 127.567 176.912C127.278 177.024 126.961 177.113 126.615 177.178ZM136.983 174.112C136.32 174.112 135.746 173.967 135.261 173.678C134.785 173.389 134.416 172.973 134.155 172.432C133.893 171.891 133.763 171.242 133.763 170.486C133.763 169.739 133.893 169.095 134.155 168.554C134.416 168.013 134.785 167.597 135.261 167.308C135.746 167.009 136.32 166.86 136.983 166.86C137.636 166.86 138.201 167.009 138.677 167.308C139.162 167.597 139.535 168.013 139.797 168.554C140.067 169.095 140.203 169.739 140.203 170.486C140.203 171.242 140.067 171.891 139.797 172.432C139.535 172.973 139.162 173.389 138.677 173.678C138.201 173.967 137.636 174.112 136.983 174.112ZM136.983 173.384C137.692 173.384 138.261 173.137 138.691 172.642C139.12 172.147 139.335 171.429 139.335 170.486C139.335 169.543 139.12 168.825 138.691 168.33C138.261 167.835 137.692 167.588 136.983 167.588C136.264 167.588 135.69 167.835 135.261 168.33C134.841 168.825 134.631 169.543 134.631 170.486C134.631 171.429 134.841 172.147 135.261 172.642C135.69 173.137 136.264 173.384 136.983 173.384ZM144.536 174.112C143.715 174.112 143.089 173.893 142.66 173.454C142.24 173.006 142.03 172.32 142.03 171.396V166.986H142.884V171.34C142.884 172.049 143.029 172.567 143.318 172.894C143.607 173.221 144.051 173.384 144.648 173.384C145.311 173.384 145.843 173.169 146.244 172.74C146.655 172.301 146.86 171.723 146.86 171.004V166.986H147.714V174H146.874V172.348H147.056C146.86 172.917 146.538 173.356 146.09 173.664C145.651 173.963 145.133 174.112 144.536 174.112ZM150.029 174V168.624C150.029 168.353 150.02 168.083 150.001 167.812C149.992 167.532 149.968 167.257 149.931 166.986H150.771L150.883 168.596L150.715 168.61C150.808 168.218 150.976 167.896 151.219 167.644C151.462 167.383 151.742 167.187 152.059 167.056C152.376 166.925 152.703 166.86 153.039 166.86C153.16 166.86 153.272 166.869 153.375 166.888C153.487 166.897 153.59 166.916 153.683 166.944L153.655 167.714C153.543 167.677 153.431 167.653 153.319 167.644C153.207 167.635 153.086 167.63 152.955 167.63C152.535 167.63 152.166 167.733 151.849 167.938C151.541 168.143 151.303 168.405 151.135 168.722C150.967 169.039 150.883 169.361 150.883 169.688V174H150.029ZM161.152 174.112C160.517 174.112 159.967 173.967 159.5 173.678C159.033 173.389 158.674 172.973 158.422 172.432C158.17 171.891 158.044 171.242 158.044 170.486C158.044 169.73 158.17 169.086 158.422 168.554C158.683 168.013 159.047 167.597 159.514 167.308C159.981 167.009 160.527 166.86 161.152 166.86C161.796 166.86 162.351 167.028 162.818 167.364C163.294 167.7 163.607 168.157 163.756 168.736H163.588L163.728 166.986H164.554C164.526 167.257 164.498 167.523 164.47 167.784C164.451 168.045 164.442 168.302 164.442 168.554V174H163.588V172.25H163.742C163.593 172.829 163.28 173.286 162.804 173.622C162.337 173.949 161.787 174.112 161.152 174.112ZM161.264 173.384C161.983 173.384 162.552 173.137 162.972 172.642C163.392 172.147 163.602 171.429 163.602 170.486C163.602 169.543 163.392 168.825 162.972 168.33C162.552 167.835 161.983 167.588 161.264 167.588C160.545 167.588 159.971 167.835 159.542 168.33C159.122 168.825 158.912 169.543 158.912 170.486C158.912 171.429 159.122 172.147 159.542 172.642C159.971 173.137 160.545 173.384 161.264 173.384ZM169.592 174.112C168.929 174.112 168.35 173.967 167.856 173.678C167.361 173.379 166.978 172.955 166.708 172.404C166.446 171.853 166.316 171.2 166.316 170.444C166.316 169.688 166.451 169.044 166.722 168.512C166.992 167.971 167.37 167.56 167.856 167.28C168.35 167 168.929 166.86 169.592 166.86C170.04 166.86 170.469 166.944 170.88 167.112C171.3 167.28 171.645 167.513 171.916 167.812L171.566 168.442C171.276 168.153 170.964 167.943 170.628 167.812C170.292 167.672 169.956 167.602 169.62 167.602C168.854 167.602 168.257 167.845 167.828 168.33C167.398 168.815 167.184 169.525 167.184 170.458C167.184 171.391 167.398 172.115 167.828 172.628C168.257 173.132 168.854 173.384 169.62 173.384C169.937 173.384 170.264 173.319 170.6 173.188C170.945 173.057 171.267 172.843 171.566 172.544L171.916 173.174C171.636 173.473 171.281 173.706 170.852 173.874C170.432 174.033 170.012 174.112 169.592 174.112ZM176.332 174.112C175.669 174.112 175.09 173.967 174.596 173.678C174.101 173.379 173.718 172.955 173.448 172.404C173.186 171.853 173.056 171.2 173.056 170.444C173.056 169.688 173.191 169.044 173.462 168.512C173.732 167.971 174.11 167.56 174.596 167.28C175.09 167 175.669 166.86 176.332 166.86C176.78 166.86 177.209 166.944 177.62 167.112C178.04 167.28 178.385 167.513 178.656 167.812L178.306 168.442C178.016 168.153 177.704 167.943 177.368 167.812C177.032 167.672 176.696 167.602 176.36 167.602C175.594 167.602 174.997 167.845 174.568 168.33C174.138 168.815 173.924 169.525 173.924 170.458C173.924 171.391 174.138 172.115 174.568 172.628C174.997 173.132 175.594 173.384 176.36 173.384C176.677 173.384 177.004 173.319 177.34 173.188C177.685 173.057 178.007 172.843 178.306 172.544L178.656 173.174C178.376 173.473 178.021 173.706 177.592 173.874C177.172 174.033 176.752 174.112 176.332 174.112ZM183.016 174.112C182.353 174.112 181.779 173.967 181.294 173.678C180.818 173.389 180.449 172.973 180.188 172.432C179.927 171.891 179.796 171.242 179.796 170.486C179.796 169.739 179.927 169.095 180.188 168.554C180.449 168.013 180.818 167.597 181.294 167.308C181.779 167.009 182.353 166.86 183.016 166.86C183.669 166.86 184.234 167.009 184.71 167.308C185.195 167.597 185.569 168.013 185.83 168.554C186.101 169.095 186.236 169.739 186.236 170.486C186.236 171.242 186.101 171.891 185.83 172.432C185.569 172.973 185.195 173.389 184.71 173.678C184.234 173.967 183.669 174.112 183.016 174.112ZM183.016 173.384C183.725 173.384 184.295 173.137 184.724 172.642C185.153 172.147 185.368 171.429 185.368 170.486C185.368 169.543 185.153 168.825 184.724 168.33C184.295 167.835 183.725 167.588 183.016 167.588C182.297 167.588 181.723 167.835 181.294 168.33C180.874 168.825 180.664 169.543 180.664 170.486C180.664 171.429 180.874 172.147 181.294 172.642C181.723 173.137 182.297 173.384 183.016 173.384ZM190.569 174.112C189.748 174.112 189.123 173.893 188.693 173.454C188.273 173.006 188.063 172.32 188.063 171.396V166.986H188.917V171.34C188.917 172.049 189.062 172.567 189.351 172.894C189.641 173.221 190.084 173.384 190.681 173.384C191.344 173.384 191.876 173.169 192.277 172.74C192.688 172.301 192.893 171.723 192.893 171.004V166.986H193.747V174H192.907V172.348H193.089C192.893 172.917 192.571 173.356 192.123 173.664C191.685 173.963 191.167 174.112 190.569 174.112ZM196.076 174V168.554C196.076 168.302 196.067 168.045 196.048 167.784C196.029 167.523 196.001 167.257 195.964 166.986H196.804L196.93 168.596H196.762C196.967 168.036 197.299 167.607 197.756 167.308C198.213 167.009 198.745 166.86 199.352 166.86C200.183 166.86 200.808 167.079 201.228 167.518C201.657 167.957 201.872 168.643 201.872 169.576V174H201.018V169.646C201.018 168.927 200.873 168.409 200.584 168.092C200.295 167.765 199.847 167.602 199.24 167.602C198.531 167.602 197.966 167.817 197.546 168.246C197.135 168.675 196.93 169.254 196.93 169.982V174H196.076ZM206.438 174.112C205.812 174.112 205.332 173.925 204.996 173.552C204.669 173.179 204.506 172.605 204.506 171.83V167.672H203.106V166.986H204.506V165.026L205.36 164.746V166.986H207.432V167.672H205.36V171.704C205.36 172.292 205.453 172.717 205.64 172.978C205.826 173.239 206.125 173.37 206.536 173.37C206.722 173.37 206.886 173.351 207.026 173.314C207.175 173.277 207.301 173.235 207.404 173.188V173.944C207.292 173.991 207.147 174.028 206.97 174.056C206.792 174.093 206.615 174.112 206.438 174.112Z" fill="#252525"/>
<defs>
<clipPath id="clip0_217_1792">
<rect width="207" height="164" fill="white"/>
</clipPath>
</defs>
</svg>
