<svg width="207" height="178" viewBox="0 0 207 178" fill="none" xmlns="http://www.w3.org/2000/svg">
<g clip-path="url(#clip0_219_1973)">
<path d="M143.479 1.96298L145.883 0.0271115C144.016 -0.18034 143.249 0.845145 142.935 1.65682C141.476 1.04685 139.888 1.84625 139.888 1.84625L144.697 3.60436C144.454 2.9518 144.032 2.38242 143.479 1.96298V1.96298Z" fill="#252525"/>
<path d="M157.478 15.0875C161.468 15.0875 164.702 11.7455 164.702 7.62284C164.702 3.50024 161.468 0.158203 157.478 0.158203C153.487 0.158203 150.253 3.50024 150.253 7.62284C150.253 11.7455 153.487 15.0875 157.478 15.0875Z" fill="#43A047" fill-opacity="0.3"/>
<path d="M180.133 30.6244H144.69C144.646 30.625 144.602 30.6214 144.558 30.6136L161.321 0.615664C161.423 0.428797 161.572 0.273338 161.751 0.165167C161.931 0.0569973 162.135 0 162.342 0C162.55 0 162.754 0.0569973 162.934 0.165167C163.113 0.273338 163.262 0.428797 163.364 0.615664L174.613 20.7459L175.152 21.709L180.133 30.6244Z" fill="#43A047"/>
<path d="M199.866 30.6251H169.212L175.151 21.7104L175.579 21.068L183.319 9.45059C183.456 9.27283 183.628 9.12684 183.823 9.02211C184.018 8.91738 184.232 8.85626 184.451 8.84272C184.671 8.82918 184.891 8.86353 185.096 8.94353C185.302 9.02353 185.489 9.14739 185.646 9.30705C185.686 9.3524 185.723 9.40034 185.757 9.45059L199.866 30.6251Z" fill="#43A047"/>
<path d="M60.0752 163.208C62.3259 163.208 64.1504 161.371 64.1504 159.104C64.1504 156.837 62.3259 155 60.0752 155C57.8245 155 56 156.837 56 159.104C56 161.371 57.8245 163.208 60.0752 163.208Z" fill="#43A047"/>
<path d="M206.908 32.4816C190.997 31.5343 175.039 31.7814 159.164 33.2207C151.513 33.9173 143.74 34.6696 136.231 36.3504C130.182 37.7042 123.161 39.9924 119.392 45.322C118.603 46.3959 118.071 47.6391 117.838 48.9544C117.605 50.2697 117.678 51.6215 118.05 52.9039C118.948 55.9421 121.184 58.4711 123.565 60.4518C129.044 65.0107 135.843 67.6636 141.916 71.2854C153.004 77.8983 163.151 86.8116 169.665 98.1343C172.531 103.117 175.257 109.742 172.066 115.232C168.939 120.61 161.96 122.463 156.267 123.337C149.133 124.432 141.784 124.135 134.62 123.522C126.765 122.784 118.955 121.632 111.22 120.07C96.0679 117.14 81.0534 113.413 65.6904 111.718C57.9873 110.805 50.2193 110.579 42.4767 111.042C35.4843 111.517 28.432 112.631 21.8631 115.17C16.8012 117.127 11.4055 120.087 8.67124 125.024C6.03556 129.783 7.06355 135.272 9.93348 139.663C13.3866 144.946 18.7712 148.566 24.3695 151.212C30.7436 154.225 37.5613 156.178 44.3877 157.839C47.8499 158.681 51.3308 159.443 54.812 160.2C55.5382 160.358 55.8485 159.235 55.1197 159.076C48.0995 157.549 41.059 156.016 34.2132 153.804C27.8781 151.758 21.395 149.136 16.2071 144.839C12.0101 141.362 8.01966 136.285 8.26738 130.511C8.51711 124.691 13.3659 120.627 18.1184 118.126C24.0577 115 30.8056 113.477 37.4177 112.681C44.9887 111.832 52.6239 111.727 60.2151 112.369C75.5418 113.544 90.5261 117.06 105.553 120.127C120.152 123.106 135.206 125.865 150.167 125.101C156.097 124.798 162.451 123.942 167.687 120.928C170.084 119.548 172.246 117.601 173.464 115.068C174.562 112.659 174.909 109.97 174.46 107.358C173.611 101.619 170.226 96.2976 166.849 91.7266C163.147 86.7688 158.853 82.289 154.064 78.3886C148.807 74.1283 143.14 70.4101 137.146 67.2897C133.968 65.6044 130.745 63.9839 127.716 62.0319C124.811 60.1603 121.947 57.9084 120.173 54.8701C118.639 52.2423 118.358 49.243 119.955 46.5779C121.571 43.8822 124.356 42.0021 127.101 40.6283C133.716 37.3181 141.407 36.4321 148.644 35.5242C164.184 33.5814 179.845 32.795 195.5 33.1713C199.305 33.2615 203.108 33.4201 206.908 33.6473C207.652 33.6913 207.65 32.5256 206.908 32.4816V32.4816Z" fill="#252525"/>
<path d="M186.008 66.9028L179.603 63.6099L180.083 63.3633L186.488 66.6565L186.008 66.9028Z" fill="#CBCBCB"/>
<path d="M180.421 66.9028L179.943 66.6565L186.347 63.3633L186.826 63.6099L180.421 66.9028Z" fill="#CBCBCB"/>
<path d="M132.751 41.38L132.441 41.9639L134.251 42.8613L134.56 42.2774L132.751 41.38Z" fill="#CBCBCB"/>
<path d="M170.264 60.7219L166.663 58.9357L166.972 58.3519L170.573 60.138L170.264 60.7219ZM163.062 57.1496L159.46 55.3633L159.769 54.7794L163.371 56.5657L163.062 57.1496ZM155.859 53.5771L152.258 51.791L152.567 51.2071L156.168 52.9933L155.859 53.5771ZM148.656 50.0048L145.055 48.2187L145.364 47.6348L148.965 49.4209L148.656 50.0048ZM141.454 46.4325L137.852 44.6464L138.161 44.0625L141.763 45.8486L141.454 46.4325Z" fill="#CBCBCB"/>
<path d="M174.175 61.924L173.865 62.5078L175.675 63.4052L175.984 62.8214L174.175 61.924Z" fill="#CBCBCB"/>
<path d="M37.559 85.2907C37.559 85.4955 37.5521 85.6987 37.5384 85.9002C37.4614 87.0621 37.1582 88.1994 36.6445 89.2522C36.6406 89.2612 36.6359 89.2696 36.6319 89.2779C36.608 89.3267 36.5835 89.3755 36.5583 89.4237C36.4055 89.7215 36.236 90.0109 36.0506 90.2908C35.2037 91.5755 34.0428 92.6385 32.6707 93.3859C31.2985 94.1333 29.7573 94.5421 28.1831 94.5761L28.278 99.8582L29.5156 99.2274L29.7366 99.634L28.2873 100.373L28.4645 110.183L28.4665 110.314L27.5096 110.52L27.5116 110.388L27.8128 94.5767C26.5458 94.5591 25.295 94.2981 24.1331 93.8088C22.9712 93.3194 21.9212 92.6116 21.0443 91.7263C20.9839 91.6659 20.9242 91.6036 20.8658 91.542L20.8591 91.5349C20.1284 90.7636 19.5375 89.8786 19.1112 88.917C19.1205 88.9272 19.1305 88.9369 19.1398 88.9471C18.1764 86.7666 18.111 84.312 18.9571 82.0863C19.8033 79.8607 21.4968 78.0325 23.6906 76.9764C23.7238 76.9603 23.7577 76.9449 23.7908 76.9288C25.961 75.9171 28.4446 75.7315 30.7495 76.4087C33.0544 77.086 35.0123 78.5767 36.2351 80.5853C36.2935 80.6804 36.3499 80.7774 36.4043 80.875C37.1639 82.2306 37.5608 83.7486 37.559 85.2907Z" fill="white"/>
<path d="M36.2673 89.2829C43.2137 89.2829 48.8449 83.8326 48.8449 77.1092C48.8449 70.3859 43.2137 64.9355 36.2673 64.9355C29.3209 64.9355 23.6897 70.3859 23.6897 77.1092C23.6897 83.8326 29.3209 89.2829 36.2673 89.2829Z" fill="white"/>
<path opacity="0.2" d="M26.9803 68.9785C25.8071 71.6347 25.648 74.6082 26.5313 77.3675C27.4147 80.1268 29.2829 82.4923 31.8023 84.0411C34.3216 85.5899 37.3279 86.2212 40.2839 85.8221C43.2399 85.4231 45.953 84.0197 47.9383 81.8628C47.2216 83.4856 46.149 84.9382 44.7947 86.12C43.4404 87.3017 41.8368 88.1844 40.0951 88.7068C38.3534 89.2291 36.5152 89.3788 34.7078 89.1453C32.9004 88.9118 31.1671 88.3007 29.6279 87.3545C28.0887 86.4082 26.7805 85.1494 25.7938 83.6653C24.8072 82.1811 24.1657 80.507 23.9139 78.7591C23.662 77.0111 23.8059 75.2311 24.3353 73.5423C24.8648 71.8534 25.7673 70.2962 26.9803 68.9785V68.9785Z" fill="#263238"/>
<path d="M36.9476 111.023L35.6631 110.674L35.6658 110.54L36.0507 90.2908L36.07 89.2811L36.0704 89.2517L36.1377 85.7137L36.2351 80.5859V80.5852L36.3013 77.1094H36.3367L36.4045 80.875L36.4926 85.7763L36.5558 89.2539V89.2796L36.5585 89.4231V89.4238L36.6805 96.2029L36.6932 96.8765L36.9453 110.888L36.9476 111.023Z" fill="#252525"/>
<path d="M38.3021 95.3771L36.223 96.4365L36.5128 96.9692L38.5919 95.9097L38.3021 95.3771Z" fill="#252525"/>
<path d="M177.601 7.75926L179.999 5.90295C178.137 5.70403 177.371 6.68736 177.058 7.46568C175.602 6.88078 174.018 7.64733 174.018 7.64733L178.816 9.33319C178.574 8.70745 178.153 8.16147 177.601 7.75926V7.75926Z" fill="#252525"/>
<path d="M189.239 17.0639L191.637 15.2076C189.774 15.0087 189.009 15.992 188.695 16.7704C187.24 16.1855 185.656 16.952 185.656 16.952L190.454 18.6379C190.212 18.0121 189.79 17.4662 189.239 17.0639V17.0639Z" fill="#252525"/>
<path d="M145.112 98.8203C148.472 100.445 150.517 102.592 150.517 104.946C150.517 110.018 141.035 114.129 129.34 114.129C124.255 114.129 119.589 113.351 115.939 112.056C119.816 113.932 125.445 115.113 131.711 115.113C143.407 115.113 152.889 111.002 152.889 105.93C152.889 103.063 149.858 100.504 145.112 98.8203Z" fill="#F1F1F1"/>
<path d="M152.585 102.305C156.376 104.139 158.684 106.561 158.684 109.217C158.684 114.94 147.985 119.579 134.787 119.579C129.049 119.579 123.785 118.701 119.666 117.24C124.041 119.356 130.392 120.689 137.464 120.689C150.661 120.689 161.36 116.05 161.36 110.327C161.36 107.093 157.94 104.205 152.585 102.305Z" fill="#F1F1F1"/>
<path d="M142.253 100.354C144.619 101.499 146.06 103.012 146.06 104.67C146.06 108.243 139.38 111.14 131.14 111.14C127.93 111.18 124.736 110.686 121.699 109.679C124.431 111.001 128.396 111.833 132.811 111.833C141.051 111.833 147.731 108.937 147.731 105.363C147.731 103.344 145.596 101.541 142.253 100.354Z" fill="#F1F1F1"/>
<path d="M108.997 99.6992C108.997 99.6992 109.518 107.057 124.426 107.057C139.335 107.057 143.786 99.6992 143.786 99.6992H108.997Z" fill="#252525"/>
<path d="M130.159 80.3937C128.007 78.8111 125.305 78.0959 122.62 78.3978C125.02 78.9577 127.139 80.3176 128.605 82.2389C130.072 84.1602 130.793 86.5201 130.641 88.9044C130.489 91.2888 129.475 93.5452 127.776 95.2777C126.076 97.0103 123.801 98.1082 121.349 98.3788C123.694 98.9269 126.163 98.6765 128.341 97.6699C130.518 96.6633 132.271 94.9618 133.305 92.8515C134.339 90.7412 134.59 88.3507 134.017 86.082C133.444 83.8132 132.082 81.8046 130.159 80.3937V80.3937Z" fill="#252525"/>
<path d="M125.274 77.0703H124.257V100.49H125.274V77.0703Z" fill="#252525"/>
<path d="M192.078 59.6696L192.073 59.6606L192.059 59.0885L195.244 54.6133L192.063 58.6603L192.052 58.7812L191.943 54.2071L194.693 49.5674L191.935 53.4035L191.964 43.9271L191.964 43.8955L191.963 43.9265L191.78 51.3953L189.273 48.3615L191.772 52.0387L191.717 56.1302L189.41 52.1371L191.709 56.7317L191.678 59.0068L191.594 65.3098L191.588 65.7807C191.8 65.7823 192.011 65.7789 192.219 65.7705L192.074 59.7163L192.078 59.6696Z" fill="#CBCBCB"/>
<path d="M176.831 61.6374L176.825 61.6283L176.811 61.0563L179.996 56.5811L176.815 60.6281L176.804 60.749L176.695 56.1749L179.445 51.5352L176.687 55.3713L176.716 45.8948L176.716 45.8633L176.715 45.8943L176.532 53.363L174.025 50.3292L176.524 54.0065L176.469 58.0979L174.163 54.1048L176.461 58.6995L176.43 60.9745L176.346 67.2775L176.34 67.7485C176.552 67.7501 176.763 67.7466 176.971 67.7382L176.827 61.6841L176.831 61.6374Z" fill="#CBCBCB"/>
<path d="M184.285 55.4059L184.28 55.3969L184.266 54.8248L187.451 50.3497L184.27 54.3966L184.258 54.5175L184.15 49.9434L186.9 45.3037L184.142 49.1398L184.171 39.6634L184.17 39.6318L184.17 39.6629L183.987 47.1316L181.48 44.0978L183.979 47.775L183.924 51.8665L181.617 47.8734L183.916 52.468L183.885 54.7431L183.801 61.0461L183.795 61.517C184.007 61.5186 184.217 61.5152 184.425 61.5068L184.281 55.4526L184.285 55.4059Z" fill="#CBCBCB"/>
<path d="M32.472 147.352C29.8907 147.352 27.7147 146.883 25.944 145.944C24.1947 144.984 22.872 143.64 21.976 141.912C21.08 140.163 20.632 138.125 20.632 135.8C20.632 133.411 21.112 131.341 22.072 129.592C23.0533 127.843 24.4613 126.488 26.296 125.528C28.1307 124.568 30.328 124.088 32.888 124.088C34.5307 124.088 35.9707 124.301 37.208 124.728C38.4667 125.133 39.5653 125.72 40.504 126.488L38.904 130.36C38.2213 129.869 37.5813 129.485 36.984 129.208C36.3867 128.909 35.768 128.707 35.128 128.6C34.488 128.472 33.752 128.408 32.92 128.408C30.5733 128.408 28.8027 129.048 27.608 130.328C26.4347 131.587 25.848 133.421 25.848 135.832C25.848 138.221 26.4027 140.035 27.512 141.272C28.6213 142.509 30.36 143.128 32.728 143.128C33.5173 143.128 34.328 143.053 35.16 142.904C35.992 142.755 36.8133 142.531 37.624 142.232L36.728 144.152V138.072H31.768V134.52H40.856V145.592C39.7253 146.147 38.4133 146.584 36.92 146.904C35.448 147.203 33.9653 147.352 32.472 147.352ZM52.9878 147.352C50.1718 147.352 47.9744 146.595 46.3958 145.08C44.8171 143.565 44.0278 141.507 44.0278 138.904C44.0278 137.219 44.3584 135.747 45.0198 134.488C45.7024 133.229 46.6411 132.248 47.8358 131.544C49.0518 130.819 50.4704 130.456 52.0918 130.456C53.6918 130.456 55.0251 130.797 56.0918 131.48C57.1798 132.163 57.9904 133.123 58.5238 134.36C59.0784 135.576 59.3558 136.995 59.3558 138.616V139.736H47.9958V137.336H55.8358L55.2918 137.784C55.2918 136.44 55.0144 135.427 54.4598 134.744C53.9264 134.04 53.1478 133.688 52.1238 133.688C50.9931 133.688 50.1184 134.104 49.4998 134.936C48.9024 135.768 48.6038 136.963 48.6038 138.52V139.032C48.6038 140.611 48.9878 141.784 49.7558 142.552C50.5451 143.32 51.6758 143.704 53.1478 143.704C54.0224 143.704 54.8438 143.597 55.6118 143.384C56.4011 143.149 57.1478 142.787 57.8518 142.296L59.1958 145.496C58.3851 146.093 57.4464 146.552 56.3798 146.872C55.3344 147.192 54.2038 147.352 52.9878 147.352ZM69.9118 147.352C67.7998 147.352 66.2104 146.829 65.1438 145.784C64.0771 144.717 63.5438 143.128 63.5438 141.016V134.392H60.4718V130.776H63.5438V126.808L68.3758 125.624V130.776H72.5358V134.392H68.3758V140.76C68.3758 141.784 68.5891 142.488 69.0158 142.872C69.4424 143.256 69.9864 143.448 70.6478 143.448C71.0531 143.448 71.3838 143.427 71.6398 143.384C71.9171 143.32 72.2051 143.235 72.5038 143.128V146.872C72.0984 147.043 71.6718 147.16 71.2238 147.224C70.7758 147.309 70.3384 147.352 69.9118 147.352ZM92.5265 147.352C90.7132 147.352 89.0172 147.128 87.4385 146.68C85.8598 146.232 84.5158 145.613 83.4065 144.824L84.8785 140.92C85.6038 141.411 86.3718 141.827 87.1825 142.168C87.9932 142.509 88.8465 142.776 89.7425 142.968C90.6385 143.139 91.5772 143.224 92.5585 143.224C94.0945 143.224 95.1825 142.989 95.8225 142.52C96.4838 142.051 96.8145 141.453 96.8145 140.728C96.8145 140.067 96.5905 139.565 96.1425 139.224C95.7158 138.861 94.9265 138.552 93.7745 138.296L89.9985 137.528C87.9292 137.101 86.3825 136.376 85.3585 135.352C84.3345 134.328 83.8225 132.963 83.8225 131.256C83.8225 129.805 84.2065 128.547 84.9745 127.48C85.7425 126.413 86.8198 125.581 88.2065 124.984C89.6145 124.387 91.2572 124.088 93.1345 124.088C94.7345 124.088 96.2278 124.312 97.6145 124.76C99.0012 125.208 100.143 125.848 101.039 126.68L99.5665 130.328C98.6918 129.624 97.7105 129.101 96.6225 128.76C95.5558 128.397 94.3612 128.216 93.0385 128.216C91.6518 128.216 90.5852 128.461 89.8385 128.952C89.1132 129.443 88.7505 130.115 88.7505 130.968C88.7505 131.608 88.9745 132.131 89.4225 132.536C89.8705 132.92 90.6598 133.229 91.7905 133.464L95.5025 134.2C97.6145 134.627 99.1825 135.341 100.207 136.344C101.231 137.347 101.743 138.68 101.743 140.344C101.743 141.752 101.359 142.979 100.591 144.024C99.8438 145.069 98.7772 145.891 97.3905 146.488C96.0252 147.064 94.4038 147.352 92.5265 147.352ZM112.474 147.352C110.362 147.352 108.773 146.829 107.706 145.784C106.64 144.717 106.106 143.128 106.106 141.016V134.392H103.034V130.776H106.106V126.808L110.938 125.624V130.776H115.098V134.392H110.938V140.76C110.938 141.784 111.152 142.488 111.578 142.872C112.005 143.256 112.549 143.448 113.21 143.448C113.616 143.448 113.946 143.427 114.202 143.384C114.48 143.32 114.768 143.235 115.066 143.128V146.872C114.661 147.043 114.234 147.16 113.786 147.224C113.338 147.309 112.901 147.352 112.474 147.352ZM123.882 147.352C122.474 147.352 121.236 147.011 120.17 146.328C119.103 145.645 118.271 144.675 117.674 143.416C117.076 142.157 116.778 140.643 116.778 138.872C116.778 137.123 117.076 135.619 117.674 134.36C118.271 133.101 119.103 132.141 120.17 131.48C121.236 130.797 122.474 130.456 123.882 130.456C125.183 130.456 126.346 130.776 127.37 131.416C128.415 132.035 129.098 132.877 129.418 133.944H129.066L129.45 130.776H134.09C134.026 131.48 133.962 132.195 133.898 132.92C133.855 133.624 133.834 134.317 133.834 135V147H129.034L129.002 143.96H129.386C129.044 144.984 128.362 145.805 127.338 146.424C126.314 147.043 125.162 147.352 123.882 147.352ZM125.354 143.704C126.463 143.704 127.359 143.309 128.042 142.52C128.724 141.731 129.066 140.515 129.066 138.872C129.066 137.229 128.724 136.024 128.042 135.256C127.359 134.488 126.463 134.104 125.354 134.104C124.244 134.104 123.348 134.488 122.666 135.256C121.983 136.024 121.642 137.229 121.642 138.872C121.642 140.515 121.972 141.731 122.634 142.52C123.316 143.309 124.223 143.704 125.354 143.704ZM137.765 147V135.064C137.765 134.36 137.743 133.645 137.701 132.92C137.679 132.195 137.626 131.48 137.541 130.776H142.181L142.725 135.512H141.989C142.202 134.36 142.543 133.411 143.013 132.664C143.503 131.917 144.101 131.363 144.805 131C145.53 130.637 146.351 130.456 147.269 130.456C147.674 130.456 147.994 130.477 148.229 130.52C148.463 130.541 148.698 130.595 148.933 130.68L148.901 134.936C148.453 134.744 148.069 134.627 147.749 134.584C147.45 134.52 147.066 134.488 146.597 134.488C145.701 134.488 144.954 134.659 144.357 135C143.781 135.341 143.343 135.843 143.045 136.504C142.767 137.165 142.629 137.965 142.629 138.904V147H137.765ZM159.474 147.352C157.362 147.352 155.773 146.829 154.706 145.784C153.64 144.717 153.106 143.128 153.106 141.016V134.392H150.034V130.776H153.106V126.808L157.938 125.624V130.776H162.098V134.392H157.938V140.76C157.938 141.784 158.152 142.488 158.578 142.872C159.005 143.256 159.549 143.448 160.21 143.448C160.616 143.448 160.946 143.427 161.202 143.384C161.48 143.32 161.768 143.235 162.066 143.128V146.872C161.661 147.043 161.234 147.16 160.786 147.224C160.338 147.309 159.901 147.352 159.474 147.352ZM172.582 147.352C169.766 147.352 167.568 146.595 165.99 145.08C164.411 143.565 163.622 141.507 163.622 138.904C163.622 137.219 163.952 135.747 164.614 134.488C165.296 133.229 166.235 132.248 167.43 131.544C168.646 130.819 170.064 130.456 171.686 130.456C173.286 130.456 174.619 130.797 175.686 131.48C176.774 132.163 177.584 133.123 178.118 134.36C178.672 135.576 178.95 136.995 178.95 138.616V139.736H167.59V137.336H175.43L174.886 137.784C174.886 136.44 174.608 135.427 174.054 134.744C173.52 134.04 172.742 133.688 171.718 133.688C170.587 133.688 169.712 134.104 169.094 134.936C168.496 135.768 168.198 136.963 168.198 138.52V139.032C168.198 140.611 168.582 141.784 169.35 142.552C170.139 143.32 171.27 143.704 172.742 143.704C173.616 143.704 174.438 143.597 175.206 143.384C175.995 143.149 176.742 142.787 177.446 142.296L178.79 145.496C177.979 146.093 177.04 146.552 175.974 146.872C174.928 147.192 173.798 147.352 172.582 147.352ZM188.383 147.352C186.975 147.352 185.727 147.011 184.639 146.328C183.573 145.645 182.73 144.675 182.111 143.416C181.514 142.157 181.215 140.643 181.215 138.872C181.215 137.123 181.514 135.619 182.111 134.36C182.709 133.101 183.551 132.141 184.639 131.48C185.727 130.797 186.975 130.456 188.383 130.456C189.663 130.456 190.805 130.765 191.807 131.384C192.831 131.981 193.514 132.792 193.855 133.816H193.439V123.448H198.271V147H193.503V143.832H193.919C193.578 144.899 192.895 145.752 191.871 146.392C190.847 147.032 189.685 147.352 188.383 147.352ZM189.823 143.704C190.933 143.704 191.829 143.309 192.511 142.52C193.194 141.731 193.535 140.515 193.535 138.872C193.535 137.229 193.194 136.024 192.511 135.256C191.829 134.488 190.933 134.104 189.823 134.104C188.714 134.104 187.807 134.488 187.103 135.256C186.421 136.024 186.079 137.229 186.079 138.872C186.079 140.515 186.421 141.731 187.103 142.52C187.807 143.309 188.714 143.704 189.823 143.704Z" fill="#252525"/>
</g>
<path d="M31.466 174.112C30.8127 174.112 30.2527 173.949 29.786 173.622C29.3287 173.286 29.0207 172.824 28.862 172.236H29.016V174H28.162V163.696H29.016V168.722H28.862C29.0207 168.143 29.3287 167.691 29.786 167.364C30.2527 167.028 30.8127 166.86 31.466 166.86C32.1007 166.86 32.6467 167.009 33.104 167.308C33.5707 167.597 33.93 168.013 34.182 168.554C34.4433 169.086 34.574 169.735 34.574 170.5C34.574 171.247 34.4433 171.891 34.182 172.432C33.9207 172.973 33.5567 173.389 33.09 173.678C32.6327 173.967 32.0913 174.112 31.466 174.112ZM31.34 173.384C32.0587 173.384 32.6327 173.141 33.062 172.656C33.4913 172.161 33.706 171.443 33.706 170.5C33.706 169.557 33.4913 168.839 33.062 168.344C32.6327 167.84 32.0587 167.588 31.34 167.588C30.6307 167.588 30.0613 167.835 29.632 168.33C29.212 168.825 29.002 169.543 29.002 170.486C29.002 171.429 29.212 172.147 29.632 172.642C30.0613 173.137 30.6307 173.384 31.34 173.384ZM36.0295 177.178L35.8195 176.436C36.2581 176.333 36.6221 176.207 36.9115 176.058C37.2008 175.918 37.4435 175.731 37.6395 175.498C37.8355 175.265 38.0081 174.975 38.1575 174.63L38.5215 173.79L38.5075 174.168L35.4415 166.986H36.3935L39.0675 173.468H38.7175L41.3635 166.986H42.2875L39.0395 174.672C38.8621 175.101 38.6661 175.456 38.4515 175.736C38.2461 176.025 38.0221 176.263 37.7795 176.45C37.5368 176.646 37.2708 176.8 36.9815 176.912C36.6921 177.024 36.3748 177.113 36.0295 177.178ZM50.1033 174.112C49.4406 174.112 48.8619 173.967 48.3673 173.678C47.8726 173.379 47.4899 172.955 47.2193 172.404C46.9579 171.853 46.8273 171.2 46.8273 170.444C46.8273 169.688 46.9626 169.044 47.2333 168.512C47.5039 167.971 47.8819 167.56 48.3673 167.28C48.8619 167 49.4406 166.86 50.1033 166.86C50.5513 166.86 50.9806 166.944 51.3913 167.112C51.8113 167.28 52.1566 167.513 52.4273 167.812L52.0773 168.442C51.7879 168.153 51.4753 167.943 51.1393 167.812C50.8033 167.672 50.4673 167.602 50.1313 167.602C49.3659 167.602 48.7686 167.845 48.3393 168.33C47.9099 168.815 47.6953 169.525 47.6953 170.458C47.6953 171.391 47.9099 172.115 48.3393 172.628C48.7686 173.132 49.3659 173.384 50.1313 173.384C50.4486 173.384 50.7753 173.319 51.1113 173.188C51.4566 173.057 51.7786 172.843 52.0773 172.544L52.4273 173.174C52.1473 173.473 51.7926 173.706 51.3633 173.874C50.9433 174.033 50.5233 174.112 50.1033 174.112ZM54.1382 174V168.624C54.1382 168.353 54.1289 168.083 54.1102 167.812C54.1009 167.532 54.0776 167.257 54.0402 166.986H54.8802L54.9922 168.596L54.8242 168.61C54.9176 168.218 55.0856 167.896 55.3282 167.644C55.5709 167.383 55.8509 167.187 56.1682 167.056C56.4856 166.925 56.8122 166.86 57.1482 166.86C57.2696 166.86 57.3816 166.869 57.4842 166.888C57.5962 166.897 57.6989 166.916 57.7922 166.944L57.7642 167.714C57.6522 167.677 57.5402 167.653 57.4282 167.644C57.3162 167.635 57.1949 167.63 57.0642 167.63C56.6442 167.63 56.2756 167.733 55.9582 167.938C55.6502 168.143 55.4122 168.405 55.2442 168.722C55.0762 169.039 54.9922 169.361 54.9922 169.688V174H54.1382ZM61.9611 174.112C60.8971 174.112 60.0524 173.795 59.4271 173.16C58.8111 172.525 58.5031 171.643 58.5031 170.514C58.5031 169.767 58.6384 169.123 58.9091 168.582C59.1891 168.041 59.5764 167.621 60.0711 167.322C60.5657 167.014 61.1397 166.86 61.7931 166.86C62.4184 166.86 62.9457 166.995 63.3751 167.266C63.8044 167.527 64.1357 167.905 64.3691 168.4C64.6024 168.885 64.7191 169.464 64.7191 170.136V170.528H59.1191V169.912H64.1871L63.9491 170.094C63.9491 169.301 63.7671 168.68 63.4031 168.232C63.0391 167.775 62.4977 167.546 61.7791 167.546C61.0137 167.546 60.4164 167.812 59.9871 168.344C59.5577 168.867 59.3431 169.562 59.3431 170.43V170.528C59.3431 171.461 59.5717 172.171 60.0291 172.656C60.4957 173.141 61.1444 173.384 61.9751 173.384C62.4044 173.384 62.8057 173.319 63.1791 173.188C63.5524 173.057 63.9117 172.833 64.2571 172.516L64.6071 173.146C64.3084 173.454 63.9211 173.692 63.4451 173.86C62.9691 174.028 62.4744 174.112 61.9611 174.112ZM69.2126 174.112C68.578 174.112 68.0273 173.967 67.5606 173.678C67.094 173.389 66.7346 172.973 66.4826 172.432C66.2306 171.891 66.1046 171.242 66.1046 170.486C66.1046 169.73 66.2306 169.086 66.4826 168.554C66.744 168.013 67.108 167.597 67.5746 167.308C68.0413 167.009 68.5873 166.86 69.2126 166.86C69.8566 166.86 70.412 167.028 70.8786 167.364C71.3546 167.7 71.6673 168.157 71.8166 168.736H71.6486L71.7886 166.986H72.6146C72.5866 167.257 72.5586 167.523 72.5306 167.784C72.512 168.045 72.5026 168.302 72.5026 168.554V174H71.6486V172.25H71.8026C71.6533 172.829 71.3406 173.286 70.8646 173.622C70.398 173.949 69.8473 174.112 69.2126 174.112ZM69.3246 173.384C70.0433 173.384 70.6126 173.137 71.0326 172.642C71.4526 172.147 71.6626 171.429 71.6626 170.486C71.6626 169.543 71.4526 168.825 71.0326 168.33C70.6126 167.835 70.0433 167.588 69.3246 167.588C68.606 167.588 68.032 167.835 67.6026 168.33C67.1826 168.825 66.9726 169.543 66.9726 170.486C66.9726 171.429 67.1826 172.147 67.6026 172.642C68.032 173.137 68.606 173.384 69.3246 173.384ZM77.0921 174.112C76.4668 174.112 75.9861 173.925 75.6501 173.552C75.3234 173.179 75.1601 172.605 75.1601 171.83V167.672H73.7601V166.986H75.1601V165.026L76.0141 164.746V166.986H78.0861V167.672H76.0141V171.704C76.0141 172.292 76.1074 172.717 76.2941 172.978C76.4808 173.239 76.7794 173.37 77.1901 173.37C77.3768 173.37 77.5401 173.351 77.6801 173.314C77.8294 173.277 77.9554 173.235 78.0581 173.188V173.944C77.9461 173.991 77.8014 174.028 77.6241 174.056C77.4468 174.093 77.2694 174.112 77.0921 174.112ZM79.5409 174V166.986H80.3949V174H79.5409ZM79.4009 165.264V164.2H80.5489V165.264H79.4009ZM82.7265 174V168.554C82.7265 168.302 82.7171 168.045 82.6985 167.784C82.6798 167.523 82.6518 167.257 82.6145 166.986H83.4545L83.5805 168.596H83.4125C83.6178 168.036 83.9491 167.607 84.4065 167.308C84.8638 167.009 85.3958 166.86 86.0025 166.86C86.8331 166.86 87.4585 167.079 87.8785 167.518C88.3078 167.957 88.5225 168.643 88.5225 169.576V174H87.6685V169.646C87.6685 168.927 87.5238 168.409 87.2345 168.092C86.9451 167.765 86.4971 167.602 85.8905 167.602C85.1811 167.602 84.6165 167.817 84.1965 168.246C83.7858 168.675 83.5805 169.254 83.5805 169.982V174H82.7265ZM93.8442 177.122C93.2562 177.122 92.7055 177.043 92.1922 176.884C91.6882 176.725 91.2355 176.487 90.8342 176.17L91.1422 175.512C91.4409 175.727 91.7255 175.895 91.9962 176.016C92.2762 176.147 92.5655 176.24 92.8642 176.296C93.1629 176.361 93.4849 176.394 93.8302 176.394C94.5395 176.394 95.0762 176.203 95.4402 175.82C95.8042 175.447 95.9862 174.905 95.9862 174.196V171.97H96.1402C95.9909 172.558 95.6782 173.02 95.2022 173.356C94.7262 173.683 94.1662 173.846 93.5222 173.846C92.8782 173.846 92.3182 173.706 91.8422 173.426C91.3755 173.137 91.0115 172.731 90.7502 172.208C90.4982 171.676 90.3722 171.055 90.3722 170.346C90.3722 169.637 90.4982 169.021 90.7502 168.498C91.0115 167.975 91.3755 167.574 91.8422 167.294C92.3182 167.005 92.8782 166.86 93.5222 166.86C94.1662 166.86 94.7262 167.028 95.2022 167.364C95.6782 167.691 95.9909 168.153 96.1402 168.75L95.9862 168.596L96.1122 166.986H96.9522C96.9149 167.257 96.8869 167.523 96.8682 167.784C96.8495 168.045 96.8402 168.302 96.8402 168.554V174.07C96.8402 175.078 96.5835 175.839 96.0702 176.352C95.5662 176.865 94.8242 177.122 93.8442 177.122ZM93.6202 173.118C94.3482 173.118 94.9222 172.875 95.3422 172.39C95.7715 171.905 95.9862 171.223 95.9862 170.346C95.9862 169.478 95.7715 168.801 95.3422 168.316C94.9222 167.831 94.3482 167.588 93.6202 167.588C92.8922 167.588 92.3135 167.831 91.8842 168.316C91.4549 168.801 91.2402 169.478 91.2402 170.346C91.2402 171.223 91.4549 171.905 91.8842 172.39C92.3135 172.875 92.8922 173.118 93.6202 173.118ZM105.375 174.112C104.74 174.112 104.189 173.967 103.723 173.678C103.256 173.389 102.897 172.973 102.645 172.432C102.393 171.891 102.267 171.242 102.267 170.486C102.267 169.73 102.393 169.086 102.645 168.554C102.906 168.013 103.27 167.597 103.737 167.308C104.203 167.009 104.749 166.86 105.375 166.86C106.019 166.86 106.574 167.028 107.041 167.364C107.517 167.7 107.829 168.157 107.979 168.736H107.811L107.951 166.986H108.777C108.749 167.257 108.721 167.523 108.693 167.784C108.674 168.045 108.665 168.302 108.665 168.554V174H107.811V172.25H107.965C107.815 172.829 107.503 173.286 107.027 173.622C106.56 173.949 106.009 174.112 105.375 174.112ZM105.487 173.384C106.205 173.384 106.775 173.137 107.195 172.642C107.615 172.147 107.825 171.429 107.825 170.486C107.825 169.543 107.615 168.825 107.195 168.33C106.775 167.835 106.205 167.588 105.487 167.588C104.768 167.588 104.194 167.835 103.765 168.33C103.345 168.825 103.135 169.543 103.135 170.486C103.135 171.429 103.345 172.147 103.765 172.642C104.194 173.137 104.768 173.384 105.487 173.384ZM114.891 174V167.672H113.491V166.986H115.101L114.891 167.21V165.992C114.891 165.245 115.077 164.667 115.451 164.256C115.824 163.845 116.356 163.64 117.047 163.64C117.224 163.64 117.406 163.659 117.593 163.696C117.779 163.724 117.933 163.761 118.055 163.808V164.564C117.943 164.517 117.807 164.475 117.649 164.438C117.49 164.401 117.322 164.382 117.145 164.382C116.837 164.382 116.575 164.447 116.361 164.578C116.155 164.709 115.997 164.9 115.885 165.152C115.782 165.395 115.731 165.707 115.731 166.09V167.21L115.591 166.986H117.747V167.672H115.745V174H114.891ZM119.08 174V168.624C119.08 168.353 119.07 168.083 119.052 167.812C119.042 167.532 119.019 167.257 118.982 166.986H119.822L119.934 168.596L119.766 168.61C119.859 168.218 120.027 167.896 120.27 167.644C120.512 167.383 120.792 167.187 121.11 167.056C121.427 166.925 121.754 166.86 122.09 166.86C122.211 166.86 122.323 166.869 122.426 166.888C122.538 166.897 122.64 166.916 122.734 166.944L122.706 167.714C122.594 167.677 122.482 167.653 122.37 167.644C122.258 167.635 122.136 167.63 122.006 167.63C121.586 167.63 121.217 167.733 120.9 167.938C120.592 168.143 120.354 168.405 120.186 168.722C120.018 169.039 119.934 169.361 119.934 169.688V174H119.08ZM126.902 174.112C125.838 174.112 124.994 173.795 124.368 173.16C123.752 172.525 123.444 171.643 123.444 170.514C123.444 169.767 123.58 169.123 123.85 168.582C124.13 168.041 124.518 167.621 125.012 167.322C125.507 167.014 126.081 166.86 126.734 166.86C127.36 166.86 127.887 166.995 128.316 167.266C128.746 167.527 129.077 167.905 129.31 168.4C129.544 168.885 129.66 169.464 129.66 170.136V170.528H124.06V169.912H129.128L128.89 170.094C128.89 169.301 128.708 168.68 128.344 168.232C127.98 167.775 127.439 167.546 126.72 167.546C125.955 167.546 125.358 167.812 124.928 168.344C124.499 168.867 124.284 169.562 124.284 170.43V170.528C124.284 171.461 124.513 172.171 124.97 172.656C125.437 173.141 126.086 173.384 126.916 173.384C127.346 173.384 127.747 173.319 128.12 173.188C128.494 173.057 128.853 172.833 129.198 172.516L129.548 173.146C129.25 173.454 128.862 173.692 128.386 173.86C127.91 174.028 127.416 174.112 126.902 174.112ZM134.504 174.112C133.44 174.112 132.595 173.795 131.97 173.16C131.354 172.525 131.046 171.643 131.046 170.514C131.046 169.767 131.181 169.123 131.452 168.582C131.732 168.041 132.119 167.621 132.614 167.322C133.109 167.014 133.683 166.86 134.336 166.86C134.961 166.86 135.489 166.995 135.918 167.266C136.347 167.527 136.679 167.905 136.912 168.4C137.145 168.885 137.262 169.464 137.262 170.136V170.528H131.662V169.912H136.73L136.492 170.094C136.492 169.301 136.31 168.68 135.946 168.232C135.582 167.775 135.041 167.546 134.322 167.546C133.557 167.546 132.959 167.812 132.53 168.344C132.101 168.867 131.886 169.562 131.886 170.43V170.528C131.886 171.461 132.115 172.171 132.572 172.656C133.039 173.141 133.687 173.384 134.518 173.384C134.947 173.384 135.349 173.319 135.722 173.188C136.095 173.057 136.455 172.833 136.8 172.516L137.15 173.146C136.851 173.454 136.464 173.692 135.988 173.86C135.512 174.028 135.017 174.112 134.504 174.112ZM145.324 174.112C144.689 174.112 144.139 173.967 143.672 173.678C143.205 173.389 142.846 172.973 142.594 172.432C142.342 171.891 142.216 171.242 142.216 170.486C142.216 169.73 142.342 169.086 142.594 168.554C142.855 168.013 143.219 167.597 143.686 167.308C144.153 167.009 144.699 166.86 145.324 166.86C145.968 166.86 146.523 167.028 146.99 167.364C147.466 167.7 147.779 168.157 147.928 168.736H147.76L147.9 166.986H148.726C148.698 167.257 148.67 167.523 148.642 167.784C148.623 168.045 148.614 168.302 148.614 168.554V174H147.76V172.25H147.914C147.765 172.829 147.452 173.286 146.976 173.622C146.509 173.949 145.959 174.112 145.324 174.112ZM145.436 173.384C146.155 173.384 146.724 173.137 147.144 172.642C147.564 172.147 147.774 171.429 147.774 170.486C147.774 169.543 147.564 168.825 147.144 168.33C146.724 167.835 146.155 167.588 145.436 167.588C144.717 167.588 144.143 167.835 143.714 168.33C143.294 168.825 143.084 169.543 143.084 170.486C143.084 171.429 143.294 172.147 143.714 172.642C144.143 173.137 144.717 173.384 145.436 173.384ZM153.763 174.112C153.101 174.112 152.522 173.967 152.027 173.678C151.533 173.379 151.15 172.955 150.879 172.404C150.618 171.853 150.487 171.2 150.487 170.444C150.487 169.688 150.623 169.044 150.893 168.512C151.164 167.971 151.542 167.56 152.027 167.28C152.522 167 153.101 166.86 153.763 166.86C154.211 166.86 154.641 166.944 155.051 167.112C155.471 167.28 155.817 167.513 156.087 167.812L155.737 168.442C155.448 168.153 155.135 167.943 154.799 167.812C154.463 167.672 154.127 167.602 153.791 167.602C153.026 167.602 152.429 167.845 151.999 168.33C151.57 168.815 151.355 169.525 151.355 170.458C151.355 171.391 151.57 172.115 151.999 172.628C152.429 173.132 153.026 173.384 153.791 173.384C154.109 173.384 154.435 173.319 154.771 173.188C155.117 173.057 155.439 172.843 155.737 172.544L156.087 173.174C155.807 173.473 155.453 173.706 155.023 173.874C154.603 174.033 154.183 174.112 153.763 174.112ZM160.504 174.112C159.841 174.112 159.262 173.967 158.768 173.678C158.273 173.379 157.89 172.955 157.62 172.404C157.358 171.853 157.228 171.2 157.228 170.444C157.228 169.688 157.363 169.044 157.634 168.512C157.904 167.971 158.282 167.56 158.768 167.28C159.262 167 159.841 166.86 160.504 166.86C160.952 166.86 161.381 166.944 161.792 167.112C162.212 167.28 162.557 167.513 162.828 167.812L162.478 168.442C162.188 168.153 161.876 167.943 161.54 167.812C161.204 167.672 160.868 167.602 160.532 167.602C159.766 167.602 159.169 167.845 158.74 168.33C158.31 168.815 158.096 169.525 158.096 170.458C158.096 171.391 158.31 172.115 158.74 172.628C159.169 173.132 159.766 173.384 160.532 173.384C160.849 173.384 161.176 173.319 161.512 173.188C161.857 173.057 162.179 172.843 162.478 172.544L162.828 173.174C162.548 173.473 162.193 173.706 161.764 173.874C161.344 174.033 160.924 174.112 160.504 174.112ZM167.188 174.112C166.525 174.112 165.951 173.967 165.466 173.678C164.99 173.389 164.621 172.973 164.36 172.432C164.099 171.891 163.968 171.242 163.968 170.486C163.968 169.739 164.099 169.095 164.36 168.554C164.621 168.013 164.99 167.597 165.466 167.308C165.951 167.009 166.525 166.86 167.188 166.86C167.841 166.86 168.406 167.009 168.882 167.308C169.367 167.597 169.741 168.013 170.002 168.554C170.273 169.095 170.408 169.739 170.408 170.486C170.408 171.242 170.273 171.891 170.002 172.432C169.741 172.973 169.367 173.389 168.882 173.678C168.406 173.967 167.841 174.112 167.188 174.112ZM167.188 173.384C167.897 173.384 168.467 173.137 168.896 172.642C169.325 172.147 169.54 171.429 169.54 170.486C169.54 169.543 169.325 168.825 168.896 168.33C168.467 167.835 167.897 167.588 167.188 167.588C166.469 167.588 165.895 167.835 165.466 168.33C165.046 168.825 164.836 169.543 164.836 170.486C164.836 171.429 165.046 172.147 165.466 172.642C165.895 173.137 166.469 173.384 167.188 173.384ZM174.741 174.112C173.92 174.112 173.295 173.893 172.865 173.454C172.445 173.006 172.235 172.32 172.235 171.396V166.986H173.089V171.34C173.089 172.049 173.234 172.567 173.523 172.894C173.813 173.221 174.256 173.384 174.853 173.384C175.516 173.384 176.048 173.169 176.449 172.74C176.86 172.301 177.065 171.723 177.065 171.004V166.986H177.919V174H177.079V172.348H177.261C177.065 172.917 176.743 173.356 176.295 173.664C175.857 173.963 175.339 174.112 174.741 174.112ZM180.248 174V168.554C180.248 168.302 180.239 168.045 180.22 167.784C180.201 167.523 180.173 167.257 180.136 166.986H180.976L181.102 168.596H180.934C181.139 168.036 181.471 167.607 181.928 167.308C182.385 167.009 182.917 166.86 183.524 166.86C184.355 166.86 184.98 167.079 185.4 167.518C185.829 167.957 186.044 168.643 186.044 169.576V174H185.19V169.646C185.19 168.927 185.045 168.409 184.756 168.092C184.467 167.765 184.019 167.602 183.412 167.602C182.703 167.602 182.138 167.817 181.718 168.246C181.307 168.675 181.102 169.254 181.102 169.982V174H180.248ZM190.61 174.112C189.984 174.112 189.504 173.925 189.168 173.552C188.841 173.179 188.678 172.605 188.678 171.83V167.672H187.278V166.986H188.678V165.026L189.532 164.746V166.986H191.604V167.672H189.532V171.704C189.532 172.292 189.625 172.717 189.812 172.978C189.998 173.239 190.297 173.37 190.708 173.37C190.894 173.37 191.058 173.351 191.198 173.314C191.347 173.277 191.473 173.235 191.576 173.188V173.944C191.464 173.991 191.319 174.028 191.142 174.056C190.964 174.093 190.787 174.112 190.61 174.112ZM192.999 174V172.796H194.189V174H192.999Z" fill="#252525"/>
<defs>
<clipPath id="clip0_219_1973">
<rect width="207" height="164" fill="white"/>
</clipPath>
</defs>
</svg>
